<?xml version="1.0" encoding="UTF-8"?>
<svg version="1.1" xmlns="http://www.w3.org/2000/svg" xmlns:xlink="http://www.w3.org/1999/xlink" x="0px" y="0px" viewBox="0 0 216 216" xml:space="preserve" role="img">
  <g>
    <g>
      <path fill="currentColor" d="M168.8,160.2c0.2,14.7-10.1,24.2-21.3,26.6c-5.3,1.1-10.4,0-15.3-2.2c-4.7-2.1-9.2-4.5-13.9-6.7    c-6.1-3-12.4-4.6-19.3-3.7c-4.9,0.6-9.6,2.1-14.3,3.4c-5.1,1.5-10.2,2.9-15.4,4c-3.7,0.8-7.6,0.6-11.3-0.1    c-6.2-1.2-10.6-4.8-13.8-10c-3.5-5.8-4.9-12.1-4-18.8c1.1-7.9,5.5-13.2,12.8-16.3c2.3-1,4.6-2,6.9-3c5.2-2.2,8.9-5.8,11.4-10.8    c1.4-2.7,2.7-5.4,3.9-8.1c3.4-7.6,9.3-12.7,16.1-16.9c4.5-2.8,9.3-4.9,14.6-5.6c9.1-1.4,16.2,1.8,21.5,9.2    c3.2,4.5,5.5,9.5,7.8,14.5c0.8,1.6,1.6,3.3,2.4,4.9c1.4,2.8,3.6,4.8,6.4,6.1c1.4,0.6,2.8,1.2,4.2,1.7c7.3,2.4,12.4,7.1,15.8,13.8    C167,147.8,168.8,153.8,168.8,160.2z"></path>
      <path fill="currentColor" d="M105,60.2c0,5.7-0.4,9.9-2.7,13.6c-4.3,6.9-10.8,9.6-18.7,9.3c-7.3-0.3-13-3.5-16.5-10.2    c-2.7-5.2-4-10.7-4.1-16.5c-0.2-6.1,0.8-12.2,2.5-18c1.3-4.4,3.6-8.2,7-11.2c4.6-4.2,10-4.8,15.4-1.9c5,2.7,8.5,6.9,11,11.9    C102.8,44.8,104.8,53,105,60.2z"></path>
      <path fill="currentColor" d="M156,52.6c-0.2,6.3-1.4,12.4-4.2,18c-3.1,6.3-8.1,10-15,10.7c-6.9,0.8-13-1-18-6c-3.3-3.3-4.8-7.5-5-12    c-0.5-11.3,2.4-21.8,8.5-31.3c2-3.1,4.6-5.6,7.7-7.6c6.6-4.1,13-3.2,18.2,2.6c3.8,4.2,5.7,9.3,6.5,14.8    C155.2,45.3,155.6,48.9,156,52.6z"></path>
      <path fill="currentColor" d="M189.3,87.9c-0.7,11.6-4.2,22.2-12.3,30.8c-3.2,3.3-7.1,5.2-11.9,4.3c-3.3-0.6-6-2.4-8.2-4.8    c-5.9-6.5-8.5-14.3-8.2-23c0.1-3.9,1.8-7.3,4.3-10.4c1.4-1.7,2.9-3.4,4.5-4.8c3.1-2.8,6.3-5.6,9.6-8.1c1.6-1.3,3.5-2.3,5.5-3    c4.4-1.7,8.4-0.6,11.5,3c3.7,4.3,5.2,9.5,5.3,15.1C189.3,87.3,189.3,87.6,189.3,87.9z"></path>
      <path fill="currentColor" d="M22.3,88.2c0-5,1.2-9.6,4-13.7c3-4.3,7.3-5.8,12.3-4.1c1.7,0.6,3.4,1.3,4.9,2.4c4.3,3.1,8.6,6.3,12.7,9.8    c6.6,5.6,8.6,12.8,7.1,21.2c-1.1,5.9-3.2,11.3-7.3,15.7c-3.4,3.6-7.4,5.6-12.4,4.5c-3.3-0.7-6.1-2.6-8.3-5    C27.2,110.2,23,99.9,22.3,88.2z"></path>
    </g>
  </g>
</svg>
